<svg width="471" height="161" viewBox="0 0 471 161" fill="none" xmlns="http://www.w3.org/2000/svg">
<mask id="mask0_9_69" style="mask-type:luminance" maskUnits="userSpaceOnUse" x="0" y="0" width="295" height="143">
<path d="M294.302 0H0V143H294.302V0Z" fill="white"/>
</mask>
<g mask="url(#mask0_9_69)">
<path d="M8.42236 104.984V36.3786H21.6715L51.9681 78.1334V36.3786H67.4657V104.984H54.2292L23.92 62.9372V104.984H8.42236Z" fill="white"/>
<path d="M98.7305 106.355C93.046 106.355 88.0283 105.213 83.6775 102.927C79.3331 100.642 75.9319 97.4621 73.4771 93.3805C71.0286 89.2926 69.8059 84.57 69.8059 79.2126C69.8059 73.8551 71.0286 69.1515 73.4771 65.0954C75.9319 61.0424 79.3331 57.8717 83.6775 55.5866C88.0283 53.3014 93.046 52.1588 98.7305 52.1588C104.421 52.1588 109.439 53.3014 113.784 55.5866C118.134 57.8717 121.52 61.0424 123.933 65.0954C126.353 69.1515 127.566 73.8551 127.566 79.2126C127.566 84.57 126.353 89.2926 123.933 93.3805C121.52 97.4621 118.134 100.642 113.784 102.927C109.439 105.213 104.421 106.355 98.7305 106.355ZM84.5159 79.2126C84.5159 83.3957 85.837 86.8266 88.4792 89.5085C91.1278 92.184 94.5449 93.5202 98.7305 93.5202C102.923 93.5202 106.321 92.184 108.931 89.5085C111.548 86.8266 112.856 83.3957 112.856 79.2126C112.856 74.966 111.548 71.5192 108.931 68.8786C106.321 66.2316 102.923 64.9049 98.7305 64.9049C94.5449 64.9049 91.1278 66.2316 88.4792 68.8786C85.837 71.5192 84.5159 74.966 84.5159 79.2126Z" fill="white"/>
<path d="M129.131 104.984V53.5299H140.208L142.164 60.3854C143.867 57.9733 145.956 56.2309 148.44 55.1549C150.929 54.0727 154.07 53.5299 157.865 53.5299H163.454V67.0504H157.764C153.511 67.0504 150.158 68.1994 147.703 70.4909C145.254 72.776 144.032 76.6957 144.032 82.2467V104.984H129.131Z" fill="white"/>
<path d="M164.526 104.984V53.5299H179.427V104.984H164.526ZM162.367 36.8737C162.367 34.1252 163.263 31.8844 165.06 30.1579C166.854 28.425 169.157 27.5553 171.97 27.5553C174.848 27.5553 177.169 28.425 178.932 30.1579C180.7 31.8844 181.587 34.1252 181.587 36.8737C181.587 39.6159 180.7 41.8566 178.932 43.5895C177.169 45.3161 174.848 46.1794 171.97 46.1794C169.157 46.1794 166.854 45.3161 165.06 43.5895C163.263 41.8566 162.367 39.6159 162.367 36.8737Z" fill="white"/>
<path d="M209.917 106.355C204.233 106.355 199.215 105.213 194.864 102.927C190.52 100.642 187.119 97.4621 184.664 93.3805C182.215 89.2926 180.993 84.57 180.993 79.2126C180.993 73.8551 182.215 69.1515 184.664 65.0954C187.119 61.0424 190.52 57.8717 194.864 55.5866C199.215 53.3014 204.233 52.1588 209.917 52.1588C215.608 52.1588 220.626 53.3014 224.97 55.5866C229.321 57.8717 232.706 61.0424 235.12 65.0954C237.54 69.1515 238.753 73.8551 238.753 79.2126C238.753 84.57 237.54 89.2926 235.12 93.3805C232.706 97.4621 229.321 100.642 224.97 102.927C220.626 105.213 215.608 106.355 209.917 106.355ZM195.703 79.2126C195.703 83.3957 197.024 86.8266 199.666 89.5085C202.315 92.184 205.732 93.5202 209.917 93.5202C214.109 93.5202 217.507 92.184 220.118 89.5085C222.735 86.8266 224.043 83.3957 224.043 79.2126C224.043 74.966 222.735 71.5192 220.118 68.8786C217.507 66.2316 214.109 64.9049 209.917 64.9049C205.732 64.9049 202.315 66.2316 199.666 68.8786C197.024 71.5192 195.703 74.966 195.703 79.2126Z" fill="white"/>
<path d="M240.318 104.984V53.5299H251.395L252.97 59.3063C255.06 56.8942 257.594 55.101 260.566 53.9235C263.539 52.7492 266.727 52.1588 270.132 52.1588C276.864 52.1588 282.139 54.2504 285.96 58.4303C289.786 62.6134 291.701 68.266 291.701 75.3913V104.984H276.801V76.9528C276.801 73.1632 275.899 70.2084 274.095 68.0915C272.298 65.9682 269.801 64.9049 266.6 64.9049C263.196 64.9049 260.446 66.0824 258.356 68.4342C256.263 70.7797 255.218 73.9789 255.218 78.0319V104.984H240.318Z" fill="white"/>
</g>
<rect x="276.836" y="106.543" width="14.8461" height="14.8461" fill="#008CFF"/>
<path d="M303.609 70.1258C303.931 63.6858 306.185 58.727 310.371 55.2494C314.621 51.7074 320.192 49.9364 327.083 49.9364C331.784 49.9364 335.809 50.7736 339.158 52.448C342.506 54.058 345.018 56.2798 346.692 59.1134C348.431 61.8826 349.301 65.0382 349.301 68.5802C349.301 72.6374 348.238 76.0828 346.113 78.9164C344.052 81.6856 341.573 83.5532 338.675 84.5192V84.9056C342.41 86.0648 345.308 88.1256 347.369 91.088C349.494 94.0504 350.556 97.85 350.556 102.487C350.556 106.351 349.655 109.796 347.852 112.823C346.113 115.85 343.505 118.233 340.027 119.971C336.614 121.646 332.492 122.483 327.662 122.483C320.385 122.483 314.46 120.648 309.888 116.977C305.315 113.306 302.9 107.896 302.643 100.748H315.78C315.909 103.904 316.972 106.447 318.968 108.379C321.029 110.247 323.83 111.181 327.372 111.181C330.657 111.181 333.168 110.279 334.907 108.476C336.71 106.608 337.612 104.226 337.612 101.328C337.612 97.4636 336.388 94.6944 333.941 93.02C331.494 91.3456 327.694 90.5084 322.542 90.5084H319.741V79.3994H322.542C331.687 79.3994 336.26 76.3404 336.26 70.2224C336.26 67.4532 335.422 65.2958 333.748 63.7502C332.138 62.2046 329.787 61.4318 326.696 61.4318C323.669 61.4318 321.319 62.269 319.644 63.9434C318.034 65.5534 317.101 67.6142 316.843 70.1258H303.609ZM392.928 69.1598C392.284 66.455 391.157 64.4264 389.547 63.074C388.002 61.7216 385.748 61.0454 382.785 61.0454C378.342 61.0454 375.057 62.8486 372.932 66.455C370.871 69.997 369.809 75.793 369.744 83.843C371.29 81.267 373.544 79.2706 376.506 77.8538C379.469 76.3726 382.689 75.632 386.166 75.632C390.352 75.632 394.055 76.5336 397.275 78.3368C400.495 80.14 403.007 82.7804 404.81 86.258C406.613 89.6712 407.515 93.7928 407.515 98.6228C407.515 103.195 406.581 107.285 404.714 110.891C402.91 114.433 400.238 117.202 396.696 119.199C393.154 121.195 388.936 122.193 384.041 122.193C377.344 122.193 372.063 120.712 368.199 117.75C364.399 114.787 361.727 110.666 360.181 105.385C358.7 100.04 357.959 93.4708 357.959 85.6784C357.959 73.8932 359.988 65.006 364.045 59.0168C368.102 52.9632 374.51 49.9364 383.268 49.9364C390.03 49.9364 395.279 51.7718 399.014 55.4426C402.749 59.1134 404.907 63.6858 405.486 69.1598H392.928ZM383.075 86.741C379.662 86.741 376.796 87.7392 374.478 89.7356C372.159 91.732 371 94.63 371 98.4296C371 102.229 372.063 105.224 374.188 107.413C376.378 109.603 379.437 110.698 383.365 110.698C386.843 110.698 389.58 109.635 391.576 107.51C393.637 105.385 394.667 102.519 394.667 98.9126C394.667 95.1774 393.669 92.215 391.673 90.0254C389.741 87.8358 386.875 86.741 383.075 86.741ZM413.374 85.8716C413.374 74.7304 415.37 66.0042 419.363 59.693C423.42 53.3818 430.118 50.2262 439.456 50.2262C448.794 50.2262 455.459 53.3818 459.452 59.693C463.509 66.0042 465.538 74.7304 465.538 85.8716C465.538 97.0772 463.509 105.868 459.452 112.243C455.459 118.619 448.794 121.807 439.456 121.807C430.118 121.807 423.42 118.619 419.363 112.243C415.37 105.868 413.374 97.0772 413.374 85.8716ZM452.207 85.8716C452.207 81.106 451.885 77.1132 451.241 73.8932C450.661 70.6088 449.438 67.9362 447.57 65.8754C445.767 63.8146 443.062 62.7842 439.456 62.7842C435.849 62.7842 433.112 63.8146 431.245 65.8754C429.441 67.9362 428.218 70.6088 427.574 73.8932C426.994 77.1132 426.704 81.106 426.704 85.8716C426.704 90.766 426.994 94.8876 427.574 98.2364C428.153 101.521 429.377 104.193 431.245 106.254C433.112 108.251 435.849 109.249 439.456 109.249C443.062 109.249 445.799 108.251 447.667 106.254C449.534 104.193 450.758 101.521 451.337 98.2364C451.917 94.8876 452.207 90.766 452.207 85.8716Z" fill="#008CFF"/>
<path d="M15.4716 113.562C15.4186 113.066 15.1951 112.68 14.8011 112.403C14.411 112.127 13.9034 111.989 13.2784 111.989C12.839 111.989 12.4621 112.055 12.1477 112.188C11.8333 112.32 11.5928 112.5 11.4261 112.727C11.2595 112.955 11.1742 113.214 11.1705 113.506C11.1705 113.748 11.2254 113.958 11.3352 114.136C11.4489 114.314 11.6023 114.466 11.7955 114.591C11.9886 114.712 12.2027 114.814 12.4375 114.898C12.6723 114.981 12.9091 115.051 13.1477 115.108L14.2386 115.381C14.678 115.483 15.1004 115.621 15.5057 115.795C15.9148 115.97 16.2803 116.189 16.6023 116.455C16.928 116.72 17.1856 117.04 17.375 117.415C17.5644 117.79 17.6591 118.229 17.6591 118.733C17.6591 119.415 17.4848 120.015 17.1364 120.534C16.7879 121.049 16.2841 121.453 15.625 121.744C14.9697 122.032 14.1761 122.176 13.2443 122.176C12.339 122.176 11.553 122.036 10.8864 121.756C10.2235 121.475 9.70455 121.066 9.32955 120.528C8.95833 119.991 8.75758 119.335 8.72727 118.562H10.8011C10.8314 118.968 10.9564 119.305 11.1761 119.574C11.3958 119.843 11.6818 120.044 12.0341 120.176C12.3902 120.309 12.7879 120.375 13.2273 120.375C13.6856 120.375 14.0871 120.307 14.4318 120.17C14.7803 120.03 15.053 119.837 15.25 119.591C15.447 119.341 15.5473 119.049 15.5511 118.716C15.5473 118.413 15.4583 118.163 15.2841 117.966C15.1098 117.765 14.8655 117.598 14.5511 117.466C14.2405 117.33 13.8769 117.208 13.4602 117.102L12.1364 116.761C11.178 116.515 10.4205 116.142 9.86364 115.642C9.31061 115.138 9.03409 114.47 9.03409 113.636C9.03409 112.951 9.2197 112.35 9.59091 111.835C9.96591 111.32 10.4754 110.92 11.1193 110.636C11.7633 110.348 12.4924 110.205 13.3068 110.205C14.1326 110.205 14.8561 110.348 15.4773 110.636C16.1023 110.92 16.5928 111.316 16.9489 111.824C17.3049 112.328 17.4886 112.907 17.5 113.562H15.4716ZM25.9429 110.364H28.3236L31.1702 115.511H31.2838L34.1304 110.364H36.5111L32.2781 117.659V122H30.1759V117.659L25.9429 110.364ZM51.5278 113.562C51.4748 113.066 51.2513 112.68 50.8574 112.403C50.4672 112.127 49.9597 111.989 49.3347 111.989C48.8953 111.989 48.5184 112.055 48.204 112.188C47.8896 112.32 47.6491 112.5 47.4824 112.727C47.3157 112.955 47.2305 113.214 47.2267 113.506C47.2267 113.748 47.2816 113.958 47.3915 114.136C47.5051 114.314 47.6585 114.466 47.8517 114.591C48.0449 114.712 48.2589 114.814 48.4938 114.898C48.7286 114.981 48.9653 115.051 49.204 115.108L50.2949 115.381C50.7343 115.483 51.1566 115.621 51.5619 115.795C51.971 115.97 52.3366 116.189 52.6585 116.455C52.9843 116.72 53.2419 117.04 53.4313 117.415C53.6206 117.79 53.7153 118.229 53.7153 118.733C53.7153 119.415 53.5411 120.015 53.1926 120.534C52.8441 121.049 52.3403 121.453 51.6813 121.744C51.0259 122.032 50.2324 122.176 49.3006 122.176C48.3953 122.176 47.6093 122.036 46.9426 121.756C46.2797 121.475 45.7608 121.066 45.3858 120.528C45.0146 119.991 44.8138 119.335 44.7835 118.562H46.8574C46.8877 118.968 47.0127 119.305 47.2324 119.574C47.4521 119.843 47.7381 120.044 48.0903 120.176C48.4464 120.309 48.8441 120.375 49.2835 120.375C49.7419 120.375 50.1434 120.307 50.4881 120.17C50.8366 120.03 51.1093 119.837 51.3063 119.591C51.5032 119.341 51.6036 119.049 51.6074 118.716C51.6036 118.413 51.5146 118.163 51.3403 117.966C51.1661 117.765 50.9218 117.598 50.6074 117.466C50.2968 117.33 49.9331 117.208 49.5165 117.102L48.1926 116.761C47.2343 116.515 46.4767 116.142 45.9199 115.642C45.3669 115.138 45.0903 114.47 45.0903 113.636C45.0903 112.951 45.2759 112.35 45.6472 111.835C46.0222 111.32 46.5316 110.92 47.1756 110.636C47.8195 110.348 48.5487 110.205 49.3631 110.205C50.1888 110.205 50.9123 110.348 51.5335 110.636C52.1585 110.92 52.6491 111.316 53.0051 111.824C53.3612 112.328 53.5449 112.907 53.5563 113.562H51.5278ZM62.2832 112.131V110.364H71.5673V112.131H67.9707V122H65.8798V112.131H62.2832ZM80.5571 122V110.364H88.1253V112.131H82.6651V115.29H87.7332V117.057H82.6651V120.233H88.1707V122H80.5571ZM97.4759 110.364H100.055L103.51 118.795H103.646L107.101 110.364H109.68V122H107.658V114.006H107.55L104.334 121.966H102.822L99.6065 113.989H99.4986V122H97.4759V110.364ZM125.5 113.562C125.447 113.066 125.223 112.68 124.829 112.403C124.439 112.127 123.932 111.989 123.307 111.989C122.867 111.989 122.49 112.055 122.176 112.188C121.861 112.32 121.621 112.5 121.454 112.727C121.288 112.955 121.202 113.214 121.199 113.506C121.199 113.748 121.254 113.958 121.363 114.136C121.477 114.314 121.63 114.466 121.824 114.591C122.017 114.712 122.231 114.814 122.466 114.898C122.7 114.981 122.937 115.051 123.176 115.108L124.267 115.381C124.706 115.483 125.129 115.621 125.534 115.795C125.943 115.97 126.308 116.189 126.63 116.455C126.956 116.72 127.214 117.04 127.403 117.415C127.593 117.79 127.687 118.229 127.687 118.733C127.687 119.415 127.513 120.015 127.164 120.534C126.816 121.049 126.312 121.453 125.653 121.744C124.998 122.032 124.204 122.176 123.272 122.176C122.367 122.176 121.581 122.036 120.914 121.756C120.252 121.475 119.733 121.066 119.358 120.528C118.986 119.991 118.786 119.335 118.755 118.562H120.829C120.86 118.968 120.985 119.305 121.204 119.574C121.424 119.843 121.71 120.044 122.062 120.176C122.418 120.309 122.816 120.375 123.255 120.375C123.714 120.375 124.115 120.307 124.46 120.17C124.808 120.03 125.081 119.837 125.278 119.591C125.475 119.341 125.575 119.049 125.579 118.716C125.575 118.413 125.486 118.163 125.312 117.966C125.138 117.765 124.894 117.598 124.579 117.466C124.269 117.33 123.905 117.208 123.488 117.102L122.164 116.761C121.206 116.515 120.449 116.142 119.892 115.642C119.339 115.138 119.062 114.47 119.062 113.636C119.062 112.951 119.248 112.35 119.619 111.835C119.994 111.32 120.504 110.92 121.147 110.636C121.791 110.348 122.521 110.205 123.335 110.205C124.161 110.205 124.884 110.348 125.505 110.636C126.13 110.92 126.621 111.316 126.977 111.824C127.333 112.328 127.517 112.907 127.528 113.562H125.5Z" fill="#008CFF"/>
</svg>
