<svg width="326" height="444" viewBox="0 0 326 444" fill="none" xmlns="http://www.w3.org/2000/svg">
<rect x="201" y="351" width="19" height="25" fill="#1E1C1C"/>
<path d="M0 336.082V8.72311H70.2772L80.2707 45.4733C93.5282 30.127 109.607 18.7183 128.466 11.227C147.324 3.7558 167.553 0 189.152 0C231.866 0 265.333 13.3068 289.571 39.9002C313.85 66.5138 326 102.476 326 147.808V336.082H231.463V157.743C231.463 133.633 225.741 114.834 214.297 101.366C202.893 87.8571 187.057 81.0927 166.747 81.0927C145.148 81.0927 127.7 88.5841 114.442 103.547C101.165 118.469 94.5358 138.823 94.5358 164.609V336.082H0Z" fill="white"/>
<path d="M326 346.165H231.897V440.268H326V346.165Z" fill="#008CFF"/>
<path d="M1.29778 373.158C1.73037 364.495 4.75852 357.825 10.3822 353.147C16.0925 348.382 23.5763 346 32.8338 346C39.1497 346 44.5571 347.126 49.056 349.379C53.555 351.544 56.9292 354.533 59.1787 358.345C61.5147 362.07 62.6827 366.315 62.6827 371.079C62.6827 376.537 61.2551 381.172 58.4 384.983C55.6314 388.708 52.3005 391.221 48.4071 392.52V393.04C53.4252 394.599 57.3185 397.371 60.0871 401.356C62.9422 405.341 64.3698 410.453 64.3698 416.69C64.3698 421.888 63.1585 426.522 60.736 430.594C58.4 434.666 54.896 437.871 50.224 440.21C45.6385 442.462 40.1014 443.589 33.6125 443.589C23.8359 443.589 15.8762 441.12 9.73336 436.182C3.59052 431.244 0.346074 423.967 0 414.351H17.6498C17.8228 418.596 19.2504 422.018 21.9325 424.617C24.7011 427.129 28.4646 428.385 33.2231 428.385C37.6356 428.385 41.0098 427.172 43.3458 424.747C45.7683 422.234 46.9796 419.029 46.9796 415.131C46.9796 409.933 45.3357 406.208 42.048 403.955C38.7603 401.703 33.6557 400.577 26.7342 400.577H22.9707V385.633H26.7342C39.0199 385.633 45.1627 381.518 45.1627 373.288C45.1627 369.563 44.0379 366.661 41.7885 364.582C39.6255 362.503 36.4676 361.463 32.3147 361.463C28.2483 361.463 25.0904 362.59 22.8409 364.842C20.678 367.008 19.4234 369.78 19.0774 373.158H1.29778ZM121.295 371.859C120.429 368.221 118.915 365.492 116.752 363.672C114.676 361.853 111.648 360.944 107.668 360.944C101.698 360.944 97.2858 363.369 94.4307 368.221C91.6621 372.985 90.2345 380.782 90.148 391.611C92.2244 388.145 95.2526 385.46 99.2324 383.554C103.212 381.562 107.538 380.565 112.21 380.565C117.834 380.565 122.809 381.778 127.135 384.204C131.461 386.629 134.835 390.181 137.257 394.859C139.68 399.451 140.891 404.995 140.891 411.492C140.891 417.643 139.637 423.144 137.128 427.995C134.705 432.76 131.114 436.485 126.356 439.17C121.597 441.856 115.93 443.199 109.355 443.199C100.357 443.199 93.2626 441.206 88.0715 437.221C82.9669 433.236 79.3764 427.692 77.3 420.588C75.3101 413.398 74.3151 404.562 74.3151 394.08C74.3151 378.226 77.0404 366.271 82.4911 358.215C87.9418 350.072 96.5504 346 108.317 346C117.401 346 124.453 348.469 129.471 353.407C134.489 358.345 137.387 364.495 138.166 371.859H121.295ZM108.057 395.509C103.472 395.509 99.6218 396.852 96.5071 399.537C93.3924 402.223 91.8351 406.121 91.8351 411.232C91.8351 416.343 93.2626 420.372 96.1178 423.317C99.0594 426.263 103.169 427.735 108.447 427.735C113.119 427.735 116.796 426.306 119.478 423.447C122.246 420.588 123.631 416.733 123.631 411.882C123.631 406.857 122.29 402.872 119.608 399.927C117.012 396.982 113.162 395.509 108.057 395.509ZM148.762 394.339C148.762 379.352 151.444 367.614 156.808 359.124C162.258 350.635 171.256 346.39 183.802 346.39C196.347 346.39 205.301 350.635 210.666 359.124C216.116 367.614 218.842 379.352 218.842 394.339C218.842 409.413 216.116 421.238 210.666 429.814C205.301 438.391 196.347 442.679 183.802 442.679C171.256 442.679 162.258 438.391 156.808 429.814C151.444 421.238 148.762 409.413 148.762 394.339ZM200.932 394.339C200.932 387.929 200.5 382.558 199.634 378.226C198.856 373.808 197.212 370.213 194.703 367.441C192.28 364.669 188.647 363.283 183.802 363.283C178.957 363.283 175.279 364.669 172.77 367.441C170.348 370.213 168.704 373.808 167.839 378.226C167.06 382.558 166.671 387.929 166.671 394.339C166.671 400.923 167.06 406.468 167.839 410.972C168.618 415.39 170.261 418.986 172.77 421.758C175.279 424.443 178.957 425.786 183.802 425.786C188.647 425.786 192.324 424.443 194.833 421.758C197.342 418.986 198.986 415.39 199.764 410.972C200.543 406.468 200.932 400.923 200.932 394.339Z" fill="#008CFF"/>
</svg>
